999
DXF from OpenSCAD
  0
SECTION
  2
HEADER
  9
$ACADVER
  1
AC1006
  9
$INSBASE
 10
0.0
 20
0.0
 30
0.0
  9
$EXTMIN
 10
0
 20
0
  9
$EXTMAX
 10
698
 20
240
  9
$LINMIN
 10
0
 20
0
  9
$LINMAX
 10
698
 20
240
  0
ENDSEC
  0
SECTION
  2
TABLES
  0
TABLE
  2
LTYPE
 70
1
  0
LTYPE
  2
CONTINUOUS
 70
64
  3
Solid line
 72
65
 73
0
 40
0.000000
  0
ENDTAB
  0
TABLE
  2
LAYER
 70
6
  0
LAYER
  2
0
 70
64
 62
7
  6
CONTINUOUS
  0
ENDTAB
  0
TABLE
  2
STYLE
 70
0
  0
ENDTAB
  0
ENDSEC
  0
SECTION
  2
BLOCKS
  0
ENDSEC
  0
SECTION
  2
ENTITIES
  0
LWPOLYLINE
100
AcDbEntity
  8
0
100
AcDbPolyline
 90
104
 70
1
 10
684.879
 20
0.0276251
 10
685.755
 20
0.110394
 10
686.623
 20
0.247978
 10
687.482
 20
0.439836
 10
688.326
 20
0.685208
 10
689.154
 20
0.983129
 10
689.961
 20
1.33242
 10
690.745
 20
1.73171
 10
691.502
 20
2.17941
 10
692.229
 20
2.67376
 10
692.924
 20
3.21281
 10
693.584
 20
3.79444
 10
694.206
 20
4.41634
 10
694.787
 20
5.07606
 10
695.326
 20
5.77101
 10
695.821
 20
6.49842
 10
696.268
 20
7.25545
 10
696.668
 20
8.03909
 10
697.017
 20
8.84626
 10
697.315
 20
9.67376
 10
697.56
 20
10.5183
 10
697.752
 20
11.3767
 10
697.89
 20
12.2453
 10
697.972
 20
13.1209
 10
698
 20
14
 10
698
 20
226
 10
697.972
 20
226.879
 10
697.89
 20
227.755
 10
697.752
 20
228.623
 10
697.56
 20
229.482
 10
697.315
 20
230.326
 10
697.017
 20
231.154
 10
696.668
 20
231.961
 10
696.268
 20
232.745
 10
695.821
 20
233.502
 10
695.326
 20
234.229
 10
694.787
 20
234.924
 10
694.206
 20
235.584
 10
693.584
 20
236.206
 10
692.924
 20
236.787
 10
692.229
 20
237.326
 10
691.502
 20
237.821
 10
690.745
 20
238.268
 10
689.961
 20
238.668
 10
689.154
 20
239.017
 10
688.326
 20
239.315
 10
687.482
 20
239.56
 10
686.623
 20
239.752
 10
685.755
 20
239.89
 10
684.879
 20
239.972
 10
684
 20
240
 10
14
 20
240
 10
13.1209
 20
239.972
 10
12.2453
 20
239.89
 10
11.3767
 20
239.752
 10
10.5183
 20
239.56
 10
9.67376
 20
239.315
 10
8.84626
 20
239.017
 10
8.03909
 20
238.668
 10
7.25545
 20
238.268
 10
6.49842
 20
237.821
 10
5.77101
 20
237.326
 10
5.07606
 20
236.787
 10
4.41634
 20
236.206
 10
3.79444
 20
235.584
 10
3.21281
 20
234.924
 10
2.67376
 20
234.229
 10
2.17941
 20
233.502
 10
1.73171
 20
232.745
 10
1.33242
 20
231.961
 10
0.983129
 20
231.154
 10
0.685208
 20
230.326
 10
0.439836
 20
229.482
 10
0.247978
 20
228.623
 10
0.110394
 20
227.755
 10
0.0276251
 20
226.879
 10
0
 20
226
 10
0
 20
14
 10
0.0276251
 20
13.1209
 10
0.110394
 20
12.2453
 10
0.247978
 20
11.3767
 10
0.439836
 20
10.5183
 10
0.685208
 20
9.67376
 10
0.983129
 20
8.84626
 10
1.33242
 20
8.03909
 10
1.73171
 20
7.25545
 10
2.17941
 20
6.49842
 10
2.67376
 20
5.77101
 10
3.21281
 20
5.07606
 10
3.79444
 20
4.41634
 10
4.41634
 20
3.79444
 10
5.07606
 20
3.21281
 10
5.77101
 20
2.67376
 10
6.49842
 20
2.17941
 10
7.25545
 20
1.73171
 10
8.03909
 20
1.33242
 10
8.84626
 20
0.983129
 10
9.67376
 20
0.685208
 10
10.5183
 20
0.439836
 10
11.3767
 20
0.247978
 10
12.2453
 20
0.110394
 10
13.1209
 20
0.0276251
 10
14
 20
0
 10
684
 20
0
  0
LWPOLYLINE
100
AcDbEntity
  8
0
100
AcDbPolyline
 90
100
 70
1
 10
239.849
 20
213.605
 10
239.699
 20
213.619
 10
239.55
 20
213.643
 10
239.403
 20
213.675
 10
239.258
 20
213.717
 10
239.117
 20
213.769
 10
238.978
 20
213.828
 10
238.844
 20
213.897
 10
238.714
 20
213.974
 10
238.589
 20
214.058
 10
238.47
 20
214.151
 10
238.357
 20
214.25
 10
238.25
 20
214.357
 10
238.151
 20
214.47
 10
238.058
 20
214.589
 10
237.974
 20
214.714
 10
237.897
 20
214.844
 10
237.828
 20
214.978
 10
237.769
 20
215.117
 10
237.717
 20
215.258
 10
237.675
 20
215.403
 10
237.643
 20
215.55
 10
237.619
 20
215.699
 10
237.605
 20
215.849
 10
237.6
 20
216
 10
237.605
 20
216.151
 10
237.619
 20
216.301
 10
237.643
 20
216.45
 10
237.675
 20
216.597
 10
237.717
 20
216.742
 10
237.769
 20
216.883
 10
237.828
 20
217.022
 10
237.897
 20
217.156
 10
237.974
 20
217.286
 10
238.058
 20
217.411
 10
238.151
 20
217.53
 10
238.25
 20
217.643
 10
238.357
 20
217.75
 10
238.47
 20
217.849
 10
238.589
 20
217.942
 10
238.714
 20
218.026
 10
238.844
 20
218.103
 10
238.978
 20
218.172
 10
239.117
 20
218.231
 10
239.258
 20
218.283
 10
239.403
 20
218.325
 10
239.55
 20
218.357
 10
239.699
 20
218.381
 10
239.849
 20
218.395
 10
240
 20
218.4
 10
240.151
 20
218.395
 10
240.301
 20
218.381
 10
240.45
 20
218.357
 10
240.597
 20
218.325
 10
240.742
 20
218.283
 10
240.883
 20
218.231
 10
241.022
 20
218.172
 10
241.156
 20
218.103
 10
241.286
 20
218.026
 10
241.411
 20
217.942
 10
241.53
 20
217.849
 10
241.643
 20
217.75
 10
241.75
 20
217.643
 10
241.849
 20
217.53
 10
241.942
 20
217.411
 10
242.026
 20
217.286
 10
242.103
 20
217.156
 10
242.172
 20
217.022
 10
242.231
 20
216.883
 10
242.283
 20
216.742
 10
242.325
 20
216.597
 10
242.357
 20
216.45
 10
242.381
 20
216.301
 10
242.395
 20
216.151
 10
242.4
 20
216
 10
242.395
 20
215.849
 10
242.381
 20
215.699
 10
242.357
 20
215.55
 10
242.325
 20
215.403
 10
242.283
 20
215.258
 10
242.231
 20
215.117
 10
242.172
 20
214.978
 10
242.103
 20
214.844
 10
242.026
 20
214.714
 10
241.942
 20
214.589
 10
241.849
 20
214.47
 10
241.75
 20
214.357
 10
241.643
 20
214.25
 10
241.53
 20
214.151
 10
241.411
 20
214.058
 10
241.286
 20
213.974
 10
241.156
 20
213.897
 10
241.022
 20
213.828
 10
240.883
 20
213.769
 10
240.742
 20
213.717
 10
240.597
 20
213.675
 10
240.45
 20
213.643
 10
240.301
 20
213.619
 10
240.151
 20
213.605
 10
240
 20
213.6
  0
LWPOLYLINE
100
AcDbEntity
  8
0
100
AcDbPolyline
 90
100
 70
1
 10
317.849
 20
213.605
 10
317.699
 20
213.619
 10
317.55
 20
213.643
 10
317.403
 20
213.675
 10
317.258
 20
213.717
 10
317.117
 20
213.769
 10
316.978
 20
213.828
 10
316.844
 20
213.897
 10
316.714
 20
213.974
 10
316.589
 20
214.058
 10
316.47
 20
214.151
 10
316.357
 20
214.25
 10
316.25
 20
214.357
 10
316.151
 20
214.47
 10
316.058
 20
214.589
 10
315.974
 20
214.714
 10
315.897
 20
214.844
 10
315.828
 20
214.978
 10
315.769
 20
215.117
 10
315.717
 20
215.258
 10
315.675
 20
215.403
 10
315.643
 20
215.55
 10
315.619
 20
215.699
 10
315.605
 20
215.849
 10
315.6
 20
216
 10
315.605
 20
216.151
 10
315.619
 20
216.301
 10
315.643
 20
216.45
 10
315.675
 20
216.597
 10
315.717
 20
216.742
 10
315.769
 20
216.883
 10
315.828
 20
217.022
 10
315.897
 20
217.156
 10
315.974
 20
217.286
 10
316.058
 20
217.411
 10
316.151
 20
217.53
 10
316.25
 20
217.643
 10
316.357
 20
217.75
 10
316.47
 20
217.849
 10
316.589
 20
217.942
 10
316.714
 20
218.026
 10
316.844
 20
218.103
 10
316.978
 20
218.172
 10
317.117
 20
218.231
 10
317.258
 20
218.283
 10
317.403
 20
218.325
 10
317.55
 20
218.357
 10
317.699
 20
218.381
 10
317.849
 20
218.395
 10
318
 20
218.4
 10
318.151
 20
218.395
 10
318.301
 20
218.381
 10
318.45
 20
218.357
 10
318.597
 20
218.325
 10
318.742
 20
218.283
 10
318.883
 20
218.231
 10
319.022
 20
218.172
 10
319.156
 20
218.103
 10
319.286
 20
218.026
 10
319.411
 20
217.942
 10
319.53
 20
217.849
 10
319.643
 20
217.75
 10
319.75
 20
217.643
 10
319.849
 20
217.53
 10
319.942
 20
217.411
 10
320.026
 20
217.286
 10
320.103
 20
217.156
 10
320.172
 20
217.022
 10
320.231
 20
216.883
 10
320.283
 20
216.742
 10
320.325
 20
216.597
 10
320.357
 20
216.45
 10
320.381
 20
216.301
 10
320.395
 20
216.151
 10
320.4
 20
216
 10
320.395
 20
215.849
 10
320.381
 20
215.699
 10
320.357
 20
215.55
 10
320.325
 20
215.403
 10
320.283
 20
215.258
 10
320.231
 20
215.117
 10
320.172
 20
214.978
 10
320.103
 20
214.844
 10
320.026
 20
214.714
 10
319.942
 20
214.589
 10
319.849
 20
214.47
 10
319.75
 20
214.357
 10
319.643
 20
214.25
 10
319.53
 20
214.151
 10
319.411
 20
214.058
 10
319.286
 20
213.974
 10
319.156
 20
213.897
 10
319.022
 20
213.828
 10
318.883
 20
213.769
 10
318.742
 20
213.717
 10
318.597
 20
213.675
 10
318.45
 20
213.643
 10
318.301
 20
213.619
 10
318.151
 20
213.605
 10
318
 20
213.6
  0
LWPOLYLINE
100
AcDbEntity
  8
0
100
AcDbPolyline
 90
100
 70
1
 10
239.849
 20
112.005
 10
239.699
 20
112.019
 10
239.55
 20
112.043
 10
239.403
 20
112.075
 10
239.258
 20
112.117
 10
239.117
 20
112.169
 10
238.978
 20
112.228
 10
238.844
 20
112.297
 10
238.714
 20
112.374
 10
238.589
 20
112.458
 10
238.47
 20
112.551
 10
238.357
 20
112.65
 10
238.25
 20
112.757
 10
238.151
 20
112.87
 10
238.058
 20
112.989
 10
237.974
 20
113.114
 10
237.897
 20
113.244
 10
237.828
 20
113.378
 10
237.769
 20
113.517
 10
237.717
 20
113.658
 10
237.675
 20
113.803
 10
237.643
 20
113.95
 10
237.619
 20
114.099
 10
237.605
 20
114.249
 10
237.6
 20
114.4
 10
237.605
 20
114.551
 10
237.619
 20
114.701
 10
237.643
 20
114.85
 10
237.675
 20
114.997
 10
237.717
 20
115.142
 10
237.769
 20
115.284
 10
237.828
 20
115.422
 10
237.897
 20
115.556
 10
237.974
 20
115.686
 10
238.058
 20
115.811
 10
238.151
 20
115.93
 10
238.25
 20
116.043
 10
238.357
 20
116.15
 10
238.47
 20
116.249
 10
238.589
 20
116.342
 10
238.714
 20
116.426
 10
238.844
 20
116.503
 10
238.978
 20
116.572
 10
239.117
 20
116.631
 10
239.258
 20
116.683
 10
239.403
 20
116.725
 10
239.55
 20
116.757
 10
239.699
 20
116.781
 10
239.849
 20
116.795
 10
240
 20
116.8
 10
240.151
 20
116.795
 10
240.301
 20
116.781
 10
240.45
 20
116.757
 10
240.597
 20
116.725
 10
240.742
 20
116.683
 10
240.883
 20
116.631
 10
241.022
 20
116.572
 10
241.156
 20
116.503
 10
241.286
 20
116.426
 10
241.411
 20
116.342
 10
241.53
 20
116.249
 10
241.643
 20
116.15
 10
241.75
 20
116.043
 10
241.849
 20
115.93
 10
241.942
 20
115.811
 10
242.026
 20
115.686
 10
242.103
 20
115.556
 10
242.172
 20
115.422
 10
242.231
 20
115.284
 10
242.283
 20
115.142
 10
242.325
 20
114.997
 10
242.357
 20
114.85
 10
242.381
 20
114.701
 10
242.395
 20
114.551
 10
242.4
 20
114.4
 10
242.395
 20
114.249
 10
242.381
 20
114.099
 10
242.357
 20
113.95
 10
242.325
 20
113.803
 10
242.283
 20
113.658
 10
242.231
 20
113.517
 10
242.172
 20
113.378
 10
242.103
 20
113.244
 10
242.026
 20
113.114
 10
241.942
 20
112.989
 10
241.849
 20
112.87
 10
241.75
 20
112.757
 10
241.643
 20
112.65
 10
241.53
 20
112.551
 10
241.411
 20
112.458
 10
241.286
 20
112.374
 10
241.156
 20
112.297
 10
241.022
 20
112.228
 10
240.883
 20
112.169
 10
240.742
 20
112.117
 10
240.597
 20
112.075
 10
240.45
 20
112.043
 10
240.301
 20
112.019
 10
240.151
 20
112.005
 10
240
 20
112
  0
LWPOLYLINE
100
AcDbEntity
  8
0
100
AcDbPolyline
 90
100
 70
1
 10
317.849
 20
112.005
 10
317.699
 20
112.019
 10
317.55
 20
112.043
 10
317.403
 20
112.075
 10
317.258
 20
112.117
 10
317.117
 20
112.169
 10
316.978
 20
112.228
 10
316.844
 20
112.297
 10
316.714
 20
112.374
 10
316.589
 20
112.458
 10
316.47
 20
112.551
 10
316.357
 20
112.65
 10
316.25
 20
112.757
 10
316.151
 20
112.87
 10
316.058
 20
112.989
 10
315.974
 20
113.114
 10
315.897
 20
113.244
 10
315.828
 20
113.378
 10
315.769
 20
113.517
 10
315.717
 20
113.658
 10
315.675
 20
113.803
 10
315.643
 20
113.95
 10
315.619
 20
114.099
 10
315.605
 20
114.249
 10
315.6
 20
114.4
 10
315.605
 20
114.551
 10
315.619
 20
114.701
 10
315.643
 20
114.85
 10
315.675
 20
114.997
 10
315.717
 20
115.142
 10
315.769
 20
115.284
 10
315.828
 20
115.422
 10
315.897
 20
115.556
 10
315.974
 20
115.686
 10
316.058
 20
115.811
 10
316.151
 20
115.93
 10
316.25
 20
116.043
 10
316.357
 20
116.15
 10
316.47
 20
116.249
 10
316.589
 20
116.342
 10
316.714
 20
116.426
 10
316.844
 20
116.503
 10
316.978
 20
116.572
 10
317.117
 20
116.631
 10
317.258
 20
116.683
 10
317.403
 20
116.725
 10
317.55
 20
116.757
 10
317.699
 20
116.781
 10
317.849
 20
116.795
 10
318
 20
116.8
 10
318.151
 20
116.795
 10
318.301
 20
116.781
 10
318.45
 20
116.757
 10
318.597
 20
116.725
 10
318.742
 20
116.683
 10
318.883
 20
116.631
 10
319.022
 20
116.572
 10
319.156
 20
116.503
 10
319.286
 20
116.426
 10
319.411
 20
116.342
 10
319.53
 20
116.249
 10
319.643
 20
116.15
 10
319.75
 20
116.043
 10
319.849
 20
115.93
 10
319.942
 20
115.811
 10
320.026
 20
115.686
 10
320.103
 20
115.556
 10
320.172
 20
115.422
 10
320.231
 20
115.284
 10
320.283
 20
115.142
 10
320.325
 20
114.997
 10
320.357
 20
114.85
 10
320.381
 20
114.701
 10
320.395
 20
114.551
 10
320.4
 20
114.4
 10
320.395
 20
114.249
 10
320.381
 20
114.099
 10
320.357
 20
113.95
 10
320.325
 20
113.803
 10
320.283
 20
113.658
 10
320.231
 20
113.517
 10
320.172
 20
113.378
 10
320.103
 20
113.244
 10
320.026
 20
113.114
 10
319.942
 20
112.989
 10
319.849
 20
112.87
 10
319.75
 20
112.757
 10
319.643
 20
112.65
 10
319.53
 20
112.551
 10
319.411
 20
112.458
 10
319.286
 20
112.374
 10
319.156
 20
112.297
 10
319.022
 20
112.228
 10
318.883
 20
112.169
 10
318.742
 20
112.117
 10
318.597
 20
112.075
 10
318.45
 20
112.043
 10
318.301
 20
112.019
 10
318.151
 20
112.005
 10
318
 20
112
  0
ENDSEC
  0
EOF
