<?xml version="1.0" standalone="no"?>
<!DOCTYPE svg PUBLIC "-//W3C//DTD SVG 1.1//EN" "http://www.w3.org/Graphics/SVG/1.1/DTD/svg11.dtd">
<svg width="698mm" height="240mm" viewBox="0 -240 698 240" xmlns="http://www.w3.org/2000/svg" version="1.1">
<title>OpenSCAD Model</title>
<path d="
M 684.879,-0.0276251 L 685.755,-0.110394 L 686.623,-0.247978 L 687.482,-0.439836 L 688.326,-0.685208 L 689.154,-0.983129
 L 689.961,-1.33242 L 690.745,-1.73171 L 691.502,-2.17941 L 692.229,-2.67376 L 692.924,-3.21281 L 693.584,-3.79444
 L 694.206,-4.41634 L 694.787,-5.07606 L 695.326,-5.77101 L 695.821,-6.49842 L 696.268,-7.25545 L 696.668,-8.03909
 L 697.017,-8.84626 L 697.315,-9.67376 L 697.56,-10.5183 L 697.752,-11.3767 L 697.89,-12.2453 L 697.972,-13.1209
 L 698,-14 L 698,-226 L 697.972,-226.879 L 697.89,-227.755 L 697.752,-228.623 L 697.56,-229.482
 L 697.315,-230.326 L 697.017,-231.154 L 696.668,-231.961 L 696.268,-232.745 L 695.821,-233.502 L 695.326,-234.229
 L 694.787,-234.924 L 694.206,-235.584 L 693.584,-236.206 L 692.924,-236.787 L 692.229,-237.326 L 691.502,-237.821
 L 690.745,-238.268 L 689.961,-238.668 L 689.154,-239.017 L 688.326,-239.315 L 687.482,-239.56 L 686.623,-239.752
 L 685.755,-239.89 L 684.879,-239.972 L 684,-240 L 14,-240 L 13.1209,-239.972 L 12.2453,-239.89
 L 11.3767,-239.752 L 10.5183,-239.56 L 9.67376,-239.315 L 8.84626,-239.017 L 8.03909,-238.668 L 7.25545,-238.268
 L 6.49842,-237.821 L 5.77101,-237.326 L 5.07606,-236.787 L 4.41634,-236.206 L 3.79444,-235.584 L 3.21281,-234.924
 L 2.67376,-234.229 L 2.17941,-233.502 L 1.73171,-232.745 L 1.33242,-231.961 L 0.983129,-231.154 L 0.685208,-230.326
 L 0.439836,-229.482 L 0.247978,-228.623 L 0.110394,-227.755 L 0.0276251,-226.879 L 0,-226 L 0,-14
 L 0.0276251,-13.1209 L 0.110394,-12.2453 L 0.247978,-11.3767 L 0.439836,-10.5183 L 0.685208,-9.67376 L 0.983129,-8.84626
 L 1.33242,-8.03909 L 1.73171,-7.25545 L 2.17941,-6.49842 L 2.67376,-5.77101 L 3.21281,-5.07606 L 3.79444,-4.41634
 L 4.41634,-3.79444 L 5.07606,-3.21281 L 5.77101,-2.67376 L 6.49842,-2.17941 L 7.25545,-1.73171 L 8.03909,-1.33242
 L 8.84626,-0.983129 L 9.67376,-0.685208 L 10.5183,-0.439836 L 11.3767,-0.247978 L 12.2453,-0.110394 L 13.1209,-0.0276251
 L 14,-0 L 684,-0 z
M 239.849,-213.605 L 239.699,-213.619 L 239.55,-213.643 L 239.403,-213.675 L 239.258,-213.717 L 239.117,-213.769
 L 238.978,-213.828 L 238.844,-213.897 L 238.714,-213.974 L 238.589,-214.058 L 238.47,-214.151 L 238.357,-214.25
 L 238.25,-214.357 L 238.151,-214.47 L 238.058,-214.589 L 237.974,-214.714 L 237.897,-214.844 L 237.828,-214.978
 L 237.769,-215.117 L 237.717,-215.258 L 237.675,-215.403 L 237.643,-215.55 L 237.619,-215.699 L 237.605,-215.849
 L 237.6,-216 L 237.605,-216.151 L 237.619,-216.301 L 237.643,-216.45 L 237.675,-216.597 L 237.717,-216.742
 L 237.769,-216.883 L 237.828,-217.022 L 237.897,-217.156 L 237.974,-217.286 L 238.058,-217.411 L 238.151,-217.53
 L 238.25,-217.643 L 238.357,-217.75 L 238.47,-217.849 L 238.589,-217.942 L 238.714,-218.026 L 238.844,-218.103
 L 238.978,-218.172 L 239.117,-218.231 L 239.258,-218.283 L 239.403,-218.325 L 239.55,-218.357 L 239.699,-218.381
 L 239.849,-218.395 L 240,-218.4 L 240.151,-218.395 L 240.301,-218.381 L 240.45,-218.357 L 240.597,-218.325
 L 240.742,-218.283 L 240.883,-218.231 L 241.022,-218.172 L 241.156,-218.103 L 241.286,-218.026 L 241.411,-217.942
 L 241.53,-217.849 L 241.643,-217.75 L 241.75,-217.643 L 241.849,-217.53 L 241.942,-217.411 L 242.026,-217.286
 L 242.103,-217.156 L 242.172,-217.022 L 242.231,-216.883 L 242.283,-216.742 L 242.325,-216.597 L 242.357,-216.45
 L 242.381,-216.301 L 242.395,-216.151 L 242.4,-216 L 242.395,-215.849 L 242.381,-215.699 L 242.357,-215.55
 L 242.325,-215.403 L 242.283,-215.258 L 242.231,-215.117 L 242.172,-214.978 L 242.103,-214.844 L 242.026,-214.714
 L 241.942,-214.589 L 241.849,-214.47 L 241.75,-214.357 L 241.643,-214.25 L 241.53,-214.151 L 241.411,-214.058
 L 241.286,-213.974 L 241.156,-213.897 L 241.022,-213.828 L 240.883,-213.769 L 240.742,-213.717 L 240.597,-213.675
 L 240.45,-213.643 L 240.301,-213.619 L 240.151,-213.605 L 240,-213.6 z
M 317.849,-213.605 L 317.699,-213.619 L 317.55,-213.643 L 317.403,-213.675 L 317.258,-213.717 L 317.117,-213.769
 L 316.978,-213.828 L 316.844,-213.897 L 316.714,-213.974 L 316.589,-214.058 L 316.47,-214.151 L 316.357,-214.25
 L 316.25,-214.357 L 316.151,-214.47 L 316.058,-214.589 L 315.974,-214.714 L 315.897,-214.844 L 315.828,-214.978
 L 315.769,-215.117 L 315.717,-215.258 L 315.675,-215.403 L 315.643,-215.55 L 315.619,-215.699 L 315.605,-215.849
 L 315.6,-216 L 315.605,-216.151 L 315.619,-216.301 L 315.643,-216.45 L 315.675,-216.597 L 315.717,-216.742
 L 315.769,-216.883 L 315.828,-217.022 L 315.897,-217.156 L 315.974,-217.286 L 316.058,-217.411 L 316.151,-217.53
 L 316.25,-217.643 L 316.357,-217.75 L 316.47,-217.849 L 316.589,-217.942 L 316.714,-218.026 L 316.844,-218.103
 L 316.978,-218.172 L 317.117,-218.231 L 317.258,-218.283 L 317.403,-218.325 L 317.55,-218.357 L 317.699,-218.381
 L 317.849,-218.395 L 318,-218.4 L 318.151,-218.395 L 318.301,-218.381 L 318.45,-218.357 L 318.597,-218.325
 L 318.742,-218.283 L 318.883,-218.231 L 319.022,-218.172 L 319.156,-218.103 L 319.286,-218.026 L 319.411,-217.942
 L 319.53,-217.849 L 319.643,-217.75 L 319.75,-217.643 L 319.849,-217.53 L 319.942,-217.411 L 320.026,-217.286
 L 320.103,-217.156 L 320.172,-217.022 L 320.231,-216.883 L 320.283,-216.742 L 320.325,-216.597 L 320.357,-216.45
 L 320.381,-216.301 L 320.395,-216.151 L 320.4,-216 L 320.395,-215.849 L 320.381,-215.699 L 320.357,-215.55
 L 320.325,-215.403 L 320.283,-215.258 L 320.231,-215.117 L 320.172,-214.978 L 320.103,-214.844 L 320.026,-214.714
 L 319.942,-214.589 L 319.849,-214.47 L 319.75,-214.357 L 319.643,-214.25 L 319.53,-214.151 L 319.411,-214.058
 L 319.286,-213.974 L 319.156,-213.897 L 319.022,-213.828 L 318.883,-213.769 L 318.742,-213.717 L 318.597,-213.675
 L 318.45,-213.643 L 318.301,-213.619 L 318.151,-213.605 L 318,-213.6 z
M 239.849,-112.005 L 239.699,-112.019 L 239.55,-112.043 L 239.403,-112.075 L 239.258,-112.117 L 239.117,-112.169
 L 238.978,-112.228 L 238.844,-112.297 L 238.714,-112.374 L 238.589,-112.458 L 238.47,-112.551 L 238.357,-112.65
 L 238.25,-112.757 L 238.151,-112.87 L 238.058,-112.989 L 237.974,-113.114 L 237.897,-113.244 L 237.828,-113.378
 L 237.769,-113.517 L 237.717,-113.658 L 237.675,-113.803 L 237.643,-113.95 L 237.619,-114.099 L 237.605,-114.249
 L 237.6,-114.4 L 237.605,-114.551 L 237.619,-114.701 L 237.643,-114.85 L 237.675,-114.997 L 237.717,-115.142
 L 237.769,-115.284 L 237.828,-115.422 L 237.897,-115.556 L 237.974,-115.686 L 238.058,-115.811 L 238.151,-115.93
 L 238.25,-116.043 L 238.357,-116.15 L 238.47,-116.249 L 238.589,-116.342 L 238.714,-116.426 L 238.844,-116.503
 L 238.978,-116.572 L 239.117,-116.631 L 239.258,-116.683 L 239.403,-116.725 L 239.55,-116.757 L 239.699,-116.781
 L 239.849,-116.795 L 240,-116.8 L 240.151,-116.795 L 240.301,-116.781 L 240.45,-116.757 L 240.597,-116.725
 L 240.742,-116.683 L 240.883,-116.631 L 241.022,-116.572 L 241.156,-116.503 L 241.286,-116.426 L 241.411,-116.342
 L 241.53,-116.249 L 241.643,-116.15 L 241.75,-116.043 L 241.849,-115.93 L 241.942,-115.811 L 242.026,-115.686
 L 242.103,-115.556 L 242.172,-115.422 L 242.231,-115.284 L 242.283,-115.142 L 242.325,-114.997 L 242.357,-114.85
 L 242.381,-114.701 L 242.395,-114.551 L 242.4,-114.4 L 242.395,-114.249 L 242.381,-114.099 L 242.357,-113.95
 L 242.325,-113.803 L 242.283,-113.658 L 242.231,-113.517 L 242.172,-113.378 L 242.103,-113.244 L 242.026,-113.114
 L 241.942,-112.989 L 241.849,-112.87 L 241.75,-112.757 L 241.643,-112.65 L 241.53,-112.551 L 241.411,-112.458
 L 241.286,-112.374 L 241.156,-112.297 L 241.022,-112.228 L 240.883,-112.169 L 240.742,-112.117 L 240.597,-112.075
 L 240.45,-112.043 L 240.301,-112.019 L 240.151,-112.005 L 240,-112 z
M 317.849,-112.005 L 317.699,-112.019 L 317.55,-112.043 L 317.403,-112.075 L 317.258,-112.117 L 317.117,-112.169
 L 316.978,-112.228 L 316.844,-112.297 L 316.714,-112.374 L 316.589,-112.458 L 316.47,-112.551 L 316.357,-112.65
 L 316.25,-112.757 L 316.151,-112.87 L 316.058,-112.989 L 315.974,-113.114 L 315.897,-113.244 L 315.828,-113.378
 L 315.769,-113.517 L 315.717,-113.658 L 315.675,-113.803 L 315.643,-113.95 L 315.619,-114.099 L 315.605,-114.249
 L 315.6,-114.4 L 315.605,-114.551 L 315.619,-114.701 L 315.643,-114.85 L 315.675,-114.997 L 315.717,-115.142
 L 315.769,-115.284 L 315.828,-115.422 L 315.897,-115.556 L 315.974,-115.686 L 316.058,-115.811 L 316.151,-115.93
 L 316.25,-116.043 L 316.357,-116.15 L 316.47,-116.249 L 316.589,-116.342 L 316.714,-116.426 L 316.844,-116.503
 L 316.978,-116.572 L 317.117,-116.631 L 317.258,-116.683 L 317.403,-116.725 L 317.55,-116.757 L 317.699,-116.781
 L 317.849,-116.795 L 318,-116.8 L 318.151,-116.795 L 318.301,-116.781 L 318.45,-116.757 L 318.597,-116.725
 L 318.742,-116.683 L 318.883,-116.631 L 319.022,-116.572 L 319.156,-116.503 L 319.286,-116.426 L 319.411,-116.342
 L 319.53,-116.249 L 319.643,-116.15 L 319.75,-116.043 L 319.849,-115.93 L 319.942,-115.811 L 320.026,-115.686
 L 320.103,-115.556 L 320.172,-115.422 L 320.231,-115.284 L 320.283,-115.142 L 320.325,-114.997 L 320.357,-114.85
 L 320.381,-114.701 L 320.395,-114.551 L 320.4,-114.4 L 320.395,-114.249 L 320.381,-114.099 L 320.357,-113.95
 L 320.325,-113.803 L 320.283,-113.658 L 320.231,-113.517 L 320.172,-113.378 L 320.103,-113.244 L 320.026,-113.114
 L 319.942,-112.989 L 319.849,-112.87 L 319.75,-112.757 L 319.643,-112.65 L 319.53,-112.551 L 319.411,-112.458
 L 319.286,-112.374 L 319.156,-112.297 L 319.022,-112.228 L 318.883,-112.169 L 318.742,-112.117 L 318.597,-112.075
 L 318.45,-112.043 L 318.301,-112.019 L 318.151,-112.005 L 318,-112 z
" stroke="black" fill="lightgray" stroke-width="0.5"/>
</svg>
